<svg id="svg" version="1.1" width="706" height="1000" xmlns="http://www.w3.org/2000/svg" xmlns:xlink="http://www.w3.org/1999/xlink" style="display: block;"><g id="svgg"><path id="path0" d="M69.688 261.190 C 69.688 263.330,69.783 263.456,71.388 263.456 C 72.993 263.456,73.088 263.330,73.088 261.190 C 73.088 259.049,72.993 258.924,71.388 258.924 C 69.783 258.924,69.688 259.049,69.688 261.190 M42.493 276.450 L 42.493 293.484 54.108 293.484 L 65.722 293.484 65.722 291.785 L 65.722 290.085 55.817 290.085 L 45.911 290.085 45.760 274.929 L 45.609 259.773 44.051 259.594 L 42.493 259.415 42.493 276.450 M151.531 260.206 C 151.380 260.599,151.324 268.184,151.407 277.061 L 151.558 293.201 163.173 293.201 L 174.788 293.201 174.788 291.785 L 174.788 290.368 164.731 290.214 L 154.674 290.059 154.674 274.774 L 154.674 259.490 153.240 259.490 C 152.451 259.490,151.682 259.812,151.531 260.206 M279.935 269.759 C 270.625 271.503,266.582 282.385,272.669 289.317 C 280.089 297.768,294.734 293.643,295.642 282.847 C 296.354 274.384,288.808 268.097,279.935 269.759 M310.482 269.518 C 302.404 270.792,299.022 275.900,299.273 286.446 L 299.433 293.201 300.992 293.380 L 302.550 293.560 302.553 287.715 C 302.559 276.897,305.073 273.088,312.209 273.088 C 319.388 273.088,321.427 275.794,321.813 285.836 L 322.096 293.201 323.796 293.201 L 325.496 293.201 325.660 287.875 C 326.052 275.149,320.135 267.994,310.482 269.518 M70.090 270.042 C 69.869 270.263,69.688 275.628,69.688 281.964 L 69.688 293.484 71.400 293.484 L 73.111 293.484 72.958 281.728 C 72.800 269.636,72.346 267.786,70.090 270.042 M77.385 270.178 C 77.197 270.482,78.396 273.620,80.051 277.151 C 81.706 280.681,84.056 285.800,85.273 288.527 C 88.957 296.775,89.604 296.391,96.159 282.072 C 99.033 275.796,101.248 270.442,101.083 270.174 C 100.186 268.723,97.948 269.754,96.909 272.096 C 93.028 280.850,89.566 288.102,89.268 288.102 C 89.075 288.102,87.050 284.023,84.768 279.037 C 80.618 269.970,78.835 267.831,77.385 270.178 M111.012 271.246 C 99.575 277.046,103.892 294.051,116.801 294.051 C 119.848 294.051,124.079 292.273,124.079 290.993 C 124.079 289.380,122.571 288.824,120.749 289.766 C 116.265 292.085,110.087 289.648,108.267 284.844 L 107.677 283.286 119.066 283.286 L 130.456 283.286 130.180 280.413 C 129.602 274.397,123.939 269.688,117.280 269.688 C 114.916 269.688,113.284 270.094,111.012 271.246 M335.910 271.271 C 324.457 277.254,328.175 292.416,341.502 294.069 C 349.671 295.082,351.304 303.885,343.685 305.845 C 341.306 306.457,340.728 309.348,342.985 309.348 C 350.563 309.348,354.799 300.026,349.878 294.178 L 348.512 292.554 350.198 291.558 C 360.173 285.666,354.337 269.688,342.210 269.688 C 339.731 269.688,338.207 270.071,335.910 271.271 M121.592 274.005 C 123.722 275.016,126.346 277.817,126.346 279.080 C 126.346 279.744,124.743 279.887,117.280 279.887 C 107.202 279.887,106.953 279.774,109.745 276.456 C 112.513 273.167,117.606 272.114,121.592 274.005 M287.824 274.363 C 293.468 278.203,293.768 285.206,288.438 288.681 C 279.515 294.500,268.547 284.344,275.207 276.429 C 278.159 272.920,284.242 271.924,287.824 274.363 M348.099 274.987 C 353.469 279.083,352.632 286.794,346.515 289.572 C 338.937 293.013,330.650 286.596,333.097 279.181 C 334.970 273.505,343.156 271.216,348.099 274.987 " stroke="none" fill="#000000" fill-rule="evenodd"></path><path id="path1" d="M42.177 276.487 C 42.177 285.680,42.255 289.441,42.350 284.844 C 42.445 280.248,42.445 272.727,42.350 268.130 C 42.255 263.534,42.177 267.295,42.177 276.487 M154.922 275.071 C 154.922 283.484,155.001 287.005,155.097 282.895 C 155.194 278.785,155.194 271.901,155.098 267.598 C 155.002 263.294,154.923 266.657,154.922 275.071 M302.762 286.969 C 302.763 290.397,302.856 291.726,302.969 289.923 C 303.082 288.119,303.081 285.315,302.967 283.690 C 302.853 282.066,302.760 283.541,302.762 286.969 " stroke="none" fill="#2d2d2d" fill-rule="evenodd"></path><path id="path2" d="M113.770 283.709 C 116.980 283.810,122.079 283.810,125.101 283.708 C 128.123 283.606,125.496 283.524,119.263 283.524 C 113.031 283.525,110.559 283.608,113.770 283.709 " stroke="none" fill="#575757" fill-rule="evenodd"></path><path id="path3" d="M0.000 283.286 L 0.000 566.572 200.000 566.572 L 400.000 566.572 400.000 283.286 L 400.000 0.000 200.000 0.000 L 0.000 0.000 0.000 283.286 M219.655 256.232 C 219.907 256.622,221.019 263.952,222.125 272.521 L 224.137 288.102 225.569 283.853 L 227.000 279.603 229.506 279.424 C 231.668 279.269,232.340 278.881,234.412 276.591 L 236.813 273.938 239.145 276.629 L 241.478 279.320 248.715 279.320 C 254.360 279.320,256.103 279.502,256.637 280.145 C 258.033 281.828,256.666 282.153,248.267 282.137 L 239.943 282.122 238.527 280.170 C 236.769 277.748,236.730 277.748,234.883 280.170 C 233.608 281.841,233.021 282.153,231.152 282.153 L 228.934 282.153 226.918 288.610 C 223.382 299.939,222.749 299.201,220.470 281.084 C 219.514 273.485,218.641 267.178,218.532 267.068 C 218.422 266.958,217.764 270.094,217.069 274.036 C 215.216 284.548,214.994 284.782,211.110 280.341 C 209.693 278.722,208.442 277.511,208.331 277.650 C 208.220 277.790,207.554 278.860,206.851 280.028 L 205.573 282.153 195.687 282.153 C 187.144 282.153,185.753 282.030,185.452 281.246 C 184.841 279.652,186.490 279.338,195.505 279.329 L 204.324 279.320 205.661 276.912 C 207.583 273.450,207.923 273.407,210.826 276.265 L 213.436 278.835 213.763 276.953 C 217.156 257.382,218.146 253.901,219.655 256.232 M72.979 261.048 C 73.148 263.394,73.108 263.456,71.421 263.456 C 69.790 263.456,69.688 263.329,69.688 261.284 C 69.688 257.242,72.688 257.027,72.979 261.048 M45.892 274.788 L 45.892 290.085 55.807 290.085 L 65.722 290.085 65.722 291.796 L 65.722 293.507 53.966 293.354 L 42.210 293.201 42.059 277.061 C 41.890 258.958,41.826 259.490,44.175 259.490 L 45.892 259.490 45.892 274.788 M155.108 274.929 L 155.259 290.085 165.165 290.085 L 175.071 290.085 175.071 291.785 L 175.071 293.484 163.173 293.484 L 151.275 293.484 151.275 276.451 L 151.275 259.418 153.116 259.596 L 154.958 259.773 155.108 274.929 M122.946 270.632 C 127.190 272.379,130.312 276.893,130.312 281.281 L 130.312 283.853 119.263 283.853 C 113.187 283.853,108.215 284.014,108.215 284.211 C 108.215 288.383,116.491 291.992,120.480 289.560 L 122.264 288.472 123.582 289.875 C 124.701 291.066,124.774 291.362,124.064 291.835 C 115.492 297.558,104.249 291.904,104.249 281.870 C 104.249 275.501,108.100 271.189,115.297 269.496 C 116.899 269.119,120.612 269.670,122.946 270.632 M288.597 270.542 C 298.115 275.059,298.343 287.756,288.992 292.493 C 275.166 299.496,262.599 282.317,274.251 272.343 C 278.068 269.076,283.952 268.338,288.597 270.542 M316.745 269.983 C 323.615 272.407,325.891 276.624,325.656 286.493 L 325.496 293.201 323.654 293.379 L 321.813 293.556 321.813 286.522 C 321.813 276.973,319.711 273.760,313.107 273.212 C 305.981 272.621,303.504 275.750,303.116 285.836 L 302.833 293.201 300.992 293.379 L 299.150 293.556 299.150 286.420 C 299.150 272.956,306.284 266.292,316.745 269.983 M347.875 270.632 C 356.201 274.060,357.886 285.387,350.925 291.125 L 348.843 292.841 350.320 294.596 C 354.476 299.536,351.403 307.855,344.919 309.218 C 341.946 309.842,341.643 309.701,341.643 307.686 C 341.643 306.359,341.935 306.032,343.380 305.743 C 351.424 304.134,349.194 294.051,340.793 294.051 C 325.683 294.051,325.198 273.031,340.227 269.496 C 341.828 269.119,345.541 269.670,347.875 270.632 M73.088 281.586 L 73.088 293.484 71.388 293.484 L 69.688 293.484 69.688 281.964 C 69.688 269.776,69.703 269.688,71.766 269.688 L 73.088 269.688 73.088 281.586 M84.976 279.069 L 89.215 288.442 91.792 282.890 C 93.209 279.836,95.126 275.623,96.051 273.528 C 97.626 269.962,97.851 269.718,99.575 269.704 C 102.101 269.683,102.115 269.631,96.242 282.295 C 89.080 297.740,89.389 297.741,82.239 282.249 C 76.356 269.500,76.405 269.687,78.895 269.692 C 80.727 269.696,80.759 269.745,84.976 279.069 M112.826 274.312 C 110.692 275.369,108.224 278.126,108.217 279.462 C 108.216 279.695,112.295 279.887,117.280 279.887 C 122.266 279.887,126.345 279.695,126.343 279.462 C 126.321 274.958,117.957 271.772,112.826 274.312 M278.021 274.272 C 275.133 275.796,273.659 278.344,273.657 281.816 C 273.650 289.986,284.731 293.282,290.230 286.746 C 296.271 279.567,286.638 269.724,278.021 274.272 M337.781 274.299 C 330.420 277.943,331.670 287.735,339.802 290.124 C 342.921 291.040,346.288 290.121,348.878 287.646 C 356.211 280.638,347.104 269.685,337.781 274.299 " stroke="none" fill="#ffffff" fill-rule="evenodd"></path><path id="path4" d="M217.906 255.996 C 217.663 256.388,214.938 270.176,213.763 276.953 L 213.436 278.835 210.826 276.265 C 207.923 273.407,207.583 273.450,205.661 276.912 L 204.324 279.320 195.505 279.329 C 186.490 279.338,184.841 279.652,185.452 281.246 C 185.753 282.030,187.144 282.153,195.687 282.153 L 205.573 282.153 206.851 280.028 C 207.554 278.860,208.220 277.790,208.331 277.650 C 208.442 277.511,209.693 278.722,211.110 280.341 C 214.994 284.782,215.216 284.548,217.069 274.036 C 217.764 270.094,218.422 266.958,218.532 267.068 C 218.641 267.178,219.514 273.485,220.470 281.084 C 222.749 299.201,223.382 299.939,226.918 288.610 L 228.934 282.153 231.152 282.153 C 233.021 282.153,233.608 281.841,234.883 280.170 C 236.730 277.748,236.769 277.748,238.527 280.170 L 239.943 282.122 248.267 282.137 C 256.666 282.153,258.033 281.828,256.637 280.145 C 256.103 279.502,254.360 279.320,248.715 279.320 L 241.478 279.320 239.145 276.629 L 236.813 273.938 234.412 276.591 C 232.340 278.881,231.668 279.269,229.506 279.424 L 227.000 279.603 225.569 283.853 L 224.137 288.102 222.125 272.521 C 221.019 263.952,219.907 256.622,219.655 256.232 C 219.128 255.418,218.330 255.310,217.906 255.996 " stroke="none" fill="#4cfdbd" fill-rule="evenodd"></path></g></svg>